<svg width="16" height="16" viewBox="0 0 16 16" fill="none" xmlns="http://www.w3.org/2000/svg">
<g clip-path="url(#clip0)">
<path d="M0.218101 8.02101C0.0461068 8.08435 -0.0425463 8.275 0.0201078 8.44765L0.229444 9.02363L1.82336 7.42969L0.218101 8.02101Z" fill="#0B0E28"/>
<path d="M1.72681 13.1406L2.68677 15.7805C2.71677 15.8639 2.77943 15.9319 2.85942 15.9685C2.90408 15.9892 2.95208 15.9999 3.00007 15.9999C3.03942 15.9999 3.07807 15.9932 3.11541 15.9792L4.17472 15.5886L1.72681 13.1406Z" fill="#0B0E28"/>
<path d="M15.9793 10.8863L14.8807 7.86572L12.2442 10.5023L13.5508 10.021C13.7221 9.95562 13.9154 10.045 13.9788 10.2183C14.0427 10.3909 13.9541 10.5829 13.7814 10.6463L12.1215 11.2583C12.0835 11.2723 12.0448 11.2789 12.0061 11.2789C11.8708 11.2789 11.7428 11.1956 11.6935 11.0609C11.6928 11.0589 11.6935 11.0569 11.6928 11.0549L8.89893 13.8488L15.7813 11.3129C15.954 11.2496 16.0427 11.0589 15.9793 10.8863Z" fill="#0B0E28"/>
<path d="M15.9029 5.43114L10.5697 0.0979849C10.4397 -0.0320106 10.2284 -0.0320106 10.0984 0.0979849L0.0987174 10.0976C-0.0312782 10.2276 -0.0312782 10.439 0.0987174 10.569L5.43188 15.9021C5.49653 15.9675 5.58187 16.0001 5.66721 16.0001C5.75256 16.0001 5.83786 15.9675 5.90321 15.9028L15.9029 5.90312C16.0329 5.77247 16.0329 5.56179 15.9029 5.43114ZM3.90327 9.23635L2.56998 10.5696C2.50464 10.6343 2.41933 10.667 2.33398 10.667C2.24864 10.667 2.16333 10.6343 2.09799 10.5696C1.968 10.4396 1.968 10.2283 2.09799 10.0983L3.43129 8.76499C3.56129 8.635 3.77262 8.635 3.90262 8.76499C4.03261 8.89502 4.03327 9.10567 3.90327 9.23635ZM9.65973 9.65965C9.42374 9.89564 9.1031 10.009 8.74642 10.009C8.1571 10.009 7.46847 9.70034 6.89249 9.12367C6.47116 8.70234 6.17517 8.19836 6.05986 7.70506C5.93186 7.15508 6.0372 6.67644 6.3565 6.35645C6.67584 6.03646 7.15448 5.93112 7.70511 6.05981C8.19844 6.17515 8.70242 6.47045 9.12372 6.89243C10.0497 7.81771 10.2857 9.03367 9.65973 9.65965ZM13.9029 5.90312L12.5696 7.23642C12.5043 7.30108 12.419 7.33376 12.3336 7.33376C12.2483 7.33376 12.163 7.30111 12.0977 7.23642C11.9677 7.10643 11.9677 6.89509 12.0977 6.76509L13.4309 5.4318C13.5609 5.3018 13.7723 5.3018 13.9023 5.4318C14.0323 5.56179 14.0329 5.77247 13.9029 5.90312Z" fill="#0B0E28"/>
</g>
<defs>
<clipPath id="clip0">
<rect width="16" height="16" fill="white"/>
</clipPath>
</defs>
</svg>
