<svg width="16" height="16" viewBox="0 0 16 16" fill="none" xmlns="http://www.w3.org/2000/svg">
<g clip-path="url(#clip0)">
<path d="M0.0119629 10.2051H4.71076V16.0003H0.0119629V10.2051Z" fill="#0B0E28"/>
<path d="M11.2888 10.2051H15.9876V16.0003H11.2888V10.2051Z" fill="#0B0E28"/>
<path d="M5.65039 16H10.3492C10.3492 15.6731 10.3492 6.94741 10.3492 6.4458H5.65039V16ZM6.59015 11.1446H7.52991V9.26508H7.06003V8.32532H8.46967V11.1446H9.40943V12.0844H6.59015V11.1446Z" fill="#0B0E28"/>
<path d="M7.99987 0L7.13742 1.76819L5.18921 2.042L6.60439 3.40866L6.26285 5.34617L7.99987 4.42254L9.73692 5.34617L9.39535 3.40866L10.8106 2.042L8.86235 1.76819L7.99987 0Z" fill="#0B0E28"/>
</g>
<defs>
<clipPath id="clip0">
<rect width="16" height="16" fill="white"/>
</clipPath>
</defs>
</svg>
